# xmcd CD database file
#
# Track frame offsets:
#	150
#	77159
#	96797
#	125667
#	143726
#	152457
#	166829
#	178050
#	187485
#	196209
#	207494
#	229680
#
# Disc length: 3395 seconds
#
# Revision: 2
# Processed by: cddbd v1.5.2PL0 Copyright (c) Steve Scherf et al.
# Submitted via: CDex 1.51
#
DISCID=a50d410c
DTITLE=Rachmaninoff  - Spring, 3 Russian Songs, 6 Choruses, Scherzo, Vovalise
DYEAR=2008
DGENRE=Classique
TTITLE0=Spring (Vesna) Op.20 - Cantata for baritone, chorus and orchestra - Allegro moderato
TTITLE1=Three Russian Songs Op.41 - I. Over the stream, the swift stream
TTITLE2=Three Russian Songs Op.41 - II. Ah, Vanka, you are dashing
TTITLE3=Three Russian Songs Op.41 - III. My cheeks, so white, so rosy!
TTITLE4=Six Choruses Op.15, for women's voices and piano - I. Be Glorious!
TTITLE5=Six Choruses Op.15, for women's voices and piano - II. Night
TTITLE6=Six Choruses Op.15, for women's voices and piano - III. The Pine
TTITLE7=Six Choruses Op.15, for women's voices and piano - IV. The Waves Began to Slumber
TTITLE8=Six Choruses Op.15, for women's voices and piano - V. Captivity
TTITLE9=Six Choruses Op.15, for women's voices and piano - VI. The Angel
TTITLE10=Scherzo in F major  (L.Slatkin, St Louis Symphony Orchestra)
TTITLE11=Vocalise Op.34  N°14
EXTD=YEAR: 2008
EXTT0=
EXTT1=
EXTT2=
EXTT3=
EXTT4=
EXTT5=
EXTT6=
EXTT7=
EXTT8=
EXTT9=
EXTT10=
EXTT11=
PLAYORDER=
